<svg xmlns="http://www.w3.org/2000/svg" viewBox="0 0 1200 630" fill="none">
  <defs>
    <linearGradient id="bg" x1="120" y1="60" x2="1040" y2="570" gradientUnits="userSpaceOnUse">
      <stop stop-color="#0A1F40"/>
      <stop offset="1" stop-color="#030816"/>
    </linearGradient>
    <linearGradient id="accent" x1="190" y1="148" x2="921" y2="537" gradientUnits="userSpaceOnUse">
      <stop stop-color="#70ADFF"/>
      <stop offset="0.5" stop-color="#3F7DE0"/>
      <stop offset="1" stop-color="#FF9B54"/>
    </linearGradient>
  </defs>
  <rect width="1200" height="630" rx="36" fill="url(#bg)"/>
  <circle cx="140" cy="98" r="180" fill="#153366" opacity="0.48"/>
  <circle cx="1080" cy="558" r="210" fill="#4F2C18" opacity="0.34"/>
  <rect x="118" y="118" width="964" height="394" rx="34" fill="#0C2242" stroke="#2E5FA8" stroke-width="2"/>
  <rect x="156" y="156" width="172" height="172" rx="40" fill="url(#accent)"/>
  <path d="M203 199h77v20h-30v79h-23v-79h-24v-20Z" fill="#0A1830"/>
  <path d="M285 199h21v60c0 26-14 39-41 39h-13v-20h11c15 0 22-7 22-20v-59Z" fill="#0A1830"/>
  <text x="380" y="238" fill="#EAF2FF" font-family="'Space Grotesk', sans-serif" font-size="74" font-weight="700">JIELive Live Chat</text>
  <text x="380" y="310" fill="#AFC4E6" font-family="'Space Grotesk', sans-serif" font-size="34" font-weight="500">Realtime chat komunitas, team, channel, dan DM yang cepat, ringan, dan siap online.</text>
  <rect x="380" y="362" width="316" height="66" rx="33" fill="url(#accent)"/>
  <text x="423" y="405" fill="#0D1B32" font-family="'Space Grotesk', sans-serif" font-size="30" font-weight="700">https://jielive.onrender.com</text>
</svg>